<svg xmlns="http://www.w3.org/2000/svg" width="64" height="64" viewBox="0 0 64 64" fill="none">
  <!-- Top left card - Chart -->
  <rect x="6" y="6" width="24" height="24" rx="4" fill="#3b82f6" opacity="0.1"/>
  <rect x="6" y="6" width="24" height="24" rx="4" stroke="#3b82f6" stroke-width="2"/>
  <polyline points="12,24 18,18 22,21 26,14" stroke="#3b82f6" stroke-width="2" stroke-linecap="round" stroke-linejoin="round" fill="none"/>

  <!-- Top right card - Stats -->
  <rect x="34" y="6" width="24" height="24" rx="4" fill="#22c55e" opacity="0.1"/>
  <rect x="34" y="6" width="24" height="24" rx="4" stroke="#22c55e" stroke-width="2"/>
  <rect x="40" y="20" width="4" height="6" rx="1" fill="#22c55e"/>
  <rect x="46" y="16" width="4" height="10" rx="1" fill="#22c55e"/>
  <rect x="52" y="12" width="4" height="14" rx="1" fill="#22c55e"/>

  <!-- Bottom left card - Pie -->
  <rect x="6" y="34" width="24" height="24" rx="4" fill="#f97316" opacity="0.1"/>
  <rect x="6" y="34" width="24" height="24" rx="4" stroke="#f97316" stroke-width="2"/>
  <circle cx="18" cy="46" r="7" stroke="#f97316" stroke-width="2" fill="none"/>
  <path d="M18 39 L18 46 L24 43" stroke="#f97316" stroke-width="2" stroke-linecap="round" fill="#f97316" opacity="0.5"/>

  <!-- Bottom right card - Grid -->
  <rect x="34" y="34" width="24" height="24" rx="4" fill="#a855f7" opacity="0.1"/>
  <rect x="34" y="34" width="24" height="24" rx="4" stroke="#a855f7" stroke-width="2"/>
  <rect x="40" y="40" width="5" height="5" rx="1" fill="#a855f7"/>
  <rect x="47" y="40" width="5" height="5" rx="1" fill="#a855f7" opacity="0.6"/>
  <rect x="40" y="47" width="5" height="5" rx="1" fill="#a855f7" opacity="0.6"/>
  <rect x="47" y="47" width="5" height="5" rx="1" fill="#a855f7"/>
</svg>
